<mxfile host="app.diagrams.net" modified="2024-02-26T09:46:52.793Z" agent="Mozilla/5.0 (Windows NT 10.0; Win64; x64) AppleWebKit/537.36 (KHTML, like Gecko) Chrome/122.0.0.0 Safari/537.36" version="23.1.6" etag="t8ezkswdnnOqdv9hezUi" type="github">
  <diagram name="第 1 页" id="jMIB5n3TUJ3w1riUL6Y_">
    <mxGraphModel>
      <root>
        <mxCell id="0" />
        <mxCell id="1" parent="0" />
      </root>
    </mxGraphModel>
  </diagram>
</mxfile>
